<svg width="23" height="23" viewBox="0 0 23 23" fill="none" xmlns="http://www.w3.org/2000/svg">
<path d="M8.28836 15H11.2842M11.2842 15H12.2828C12.9486 15 14.28 14.6 14.28 13C14.28 11.4 12.9486 11 12.2828 11H10.2856C9.6198 11 8.28836 10.6 8.28836 9C8.28836 7.4 9.6198 7 10.2856 7H11.2842M11.2842 15V17M11.2842 7H14.28M11.2842 7V5M1.51172 20L1.51172 16L5.85094 16M1.51172 16.3218C4.0365 18.4104 6.37479 20.775 9.91386 21.234C12.0101 21.5059 14.1454 21.1424 15.9981 20.1984C17.8507 19.2543 19.3203 17.7809 20.1855 16M21.2703 2.32181V6.32181H16.9311M21.2703 6C18.7455 3.9114 16.4072 1.5468 12.8682 1.0878C10.7719 0.815927 8.63659 1.1794 6.78394 2.1234C4.9313 3.0675 3.46168 4.5409 2.59653 6.3218" stroke="#999898" stroke-width="1.5" stroke-linecap="round" stroke-linejoin="round"/>
</svg>
