<svg width="15" height="15" viewBox="0 0 15 15" fill="none" xmlns="http://www.w3.org/2000/svg">
<g id="Group">
<path id="Vector" d="M13.9996 12.6902V10.7332C14.0075 10.4132 13.8974 10.1015 13.6901 9.85735C13.1055 9.16878 11.1006 8.72837 10.3059 8.89752C9.68641 9.02939 9.25294 9.65137 8.82921 10.0743C7.1928 9.1456 5.83786 7.79338 4.90737 6.16014C5.33109 5.73727 5.95436 5.30471 6.08649 4.68643C6.25571 3.89451 5.81587 1.90241 5.13206 1.31549C4.89154 1.10905 4.584 0.996943 4.26679 1.00006H2.30585C1.55869 1.00076 0.937076 1.67091 1.0051 2.42219C0.999996 8.89752 6.05558 14 12.5747 13.9949C13.33 14.0631 14.0026 13.4384 13.9996 12.6902Z" stroke="#0068FF" stroke-width="1.5" stroke-linecap="round" stroke-linejoin="round"/>
</g>
</svg>
