<svg width="27" height="20" viewBox="0 0 27 20" fill="none" xmlns="http://www.w3.org/2000/svg">
<path d="M17.3794 14.9767C15.7693 17.4018 13.016 19 9.88984 19C4.92619 19 0.902344 14.9706 0.902344 10C0.902344 5.02944 4.92619 1 9.88984 1C13.016 1 15.7693 2.59826 17.3794 5.02329M6.89401 14H9.88984M9.88984 14H10.8885C11.5542 14 12.8857 13.6 12.8857 12C12.8857 10.4 11.5542 10 10.8885 10H8.89123C8.22546 10 6.89401 9.6 6.89401 8C6.89401 6.4 8.22546 6 8.89123 6H9.88984M9.88984 14V16M9.88984 6H12.8857M9.88984 6V4M25.8676 10H15.8815M25.8676 10L21.8732 14M25.8676 10L21.8732 6" stroke="white" stroke-width="1.5" stroke-linecap="round" stroke-linejoin="round"/>
</svg>
