<svg width="21" height="21" viewBox="0 0 21 21" fill="none" xmlns="http://www.w3.org/2000/svg">
<g id="Group 1000002030">
<g id="Group">
<path id="Vector" d="M13.9844 17.9945L20.001 20.0001L17.9955 13.9834" stroke="#0068FF" stroke-width="1.5" stroke-linecap="round" stroke-linejoin="round"/>
<path id="Vector_2" d="M13.9833 17.9944C13.9833 17.9944 12.7005 18.9444 9.97222 18.9444C5.017 18.9444 1 14.9274 1 9.97222C1 5.017 5.017 1 9.97222 1C14.9274 1 18.9444 5.017 18.9444 9.97222C18.9444 12.6111 17.9944 13.9833 17.9944 13.9833" stroke="#0068FF" stroke-width="1.5" stroke-linecap="round" stroke-linejoin="round"/>
</g>
<g id="Group_2">
<path id="Vector_3" d="M14.7224 13.765V12.3349C14.7282 12.1011 14.6477 11.8733 14.4961 11.6948C14.069 11.1916 12.6039 10.8698 12.0231 10.9934C11.5704 11.0898 11.2536 11.5443 10.944 11.8534C9.74816 11.1747 8.75801 10.1865 8.07804 8.99303C8.38768 8.68401 8.84314 8.36791 8.93971 7.91609C9.06336 7.33738 8.74194 5.88162 8.24224 5.45272C8.06647 5.30186 7.84173 5.21993 7.60992 5.22221H6.17693C5.63093 5.22273 5.17667 5.71245 5.22638 6.26146C5.22265 10.9934 8.91712 14.7222 13.681 14.7184C14.233 14.7682 14.7246 14.3117 14.7224 13.765Z" stroke="#0068FF" stroke-width="1.5" stroke-linecap="round" stroke-linejoin="round"/>
</g>
</g>
</svg>
